<mxfile host="app.diagrams.net" modified="2024-02-01T07:52:27.968Z" agent="Mozilla/5.0 (Macintosh; Intel Mac OS X 10_15_7) AppleWebKit/537.36 (KHTML, like Gecko) Chrome/121.0.0.0 Safari/537.36" etag="kR8QLYxODJ07rsjv9Iww" version="22.1.16" type="github">
  <diagram name="第 1 页" id="avJHOalQm4Sij012r96I">
    <mxGraphModel dx="1101" dy="591" grid="0" gridSize="10" guides="1" tooltips="1" connect="1" arrows="1" fold="1" page="1" pageScale="1" pageWidth="1700" pageHeight="1100" math="0" shadow="0">
      <root>
        <mxCell id="0" />
        <mxCell id="1" parent="0" />
        <mxCell id="bJuoEY3J94CG9638gQCM-12" value="" style="rounded=0;whiteSpace=wrap;html=1;fillColor=#1ba1e2;strokeColor=#006EAF;fontColor=#ffffff;" vertex="1" parent="1">
          <mxGeometry x="90" y="160" width="550" height="250" as="geometry" />
        </mxCell>
        <mxCell id="bJuoEY3J94CG9638gQCM-1" value="app sdk" style="rounded=1;whiteSpace=wrap;html=1;fillColor=#dae8fc;strokeColor=#6c8ebf;" vertex="1" parent="1">
          <mxGeometry x="120" y="180" width="120" height="60" as="geometry" />
        </mxCell>
        <mxCell id="bJuoEY3J94CG9638gQCM-6" style="edgeStyle=orthogonalEdgeStyle;rounded=0;orthogonalLoop=1;jettySize=auto;html=1;exitX=1;exitY=0.5;exitDx=0;exitDy=0;" edge="1" parent="1" source="bJuoEY3J94CG9638gQCM-2">
          <mxGeometry relative="1" as="geometry">
            <mxPoint x="350" y="280" as="targetPoint" />
          </mxGeometry>
        </mxCell>
        <mxCell id="bJuoEY3J94CG9638gQCM-2" value="web sdk" style="rounded=1;whiteSpace=wrap;html=1;fillColor=#dae8fc;strokeColor=#6c8ebf;" vertex="1" parent="1">
          <mxGeometry x="120" y="250" width="120" height="60" as="geometry" />
        </mxCell>
        <mxCell id="bJuoEY3J94CG9638gQCM-3" value="minigram sdk" style="rounded=1;whiteSpace=wrap;html=1;fillColor=#dae8fc;strokeColor=#6c8ebf;" vertex="1" parent="1">
          <mxGeometry x="120" y="320" width="120" height="60" as="geometry" />
        </mxCell>
        <mxCell id="bJuoEY3J94CG9638gQCM-4" value="collector" style="rounded=1;whiteSpace=wrap;html=1;fillColor=#dae8fc;strokeColor=#6c8ebf;" vertex="1" parent="1">
          <mxGeometry x="350" y="250" width="120" height="60" as="geometry" />
        </mxCell>
        <mxCell id="bJuoEY3J94CG9638gQCM-5" value="" style="endArrow=classic;html=1;rounded=0;entryX=0;entryY=0.5;entryDx=0;entryDy=0;exitX=1;exitY=0.5;exitDx=0;exitDy=0;" edge="1" parent="1" source="bJuoEY3J94CG9638gQCM-1" target="bJuoEY3J94CG9638gQCM-4">
          <mxGeometry width="50" height="50" relative="1" as="geometry">
            <mxPoint x="240" y="160" as="sourcePoint" />
            <mxPoint x="290" y="110" as="targetPoint" />
          </mxGeometry>
        </mxCell>
        <mxCell id="bJuoEY3J94CG9638gQCM-8" value="" style="endArrow=classic;html=1;rounded=0;entryX=0;entryY=0.5;entryDx=0;entryDy=0;exitX=1;exitY=0.5;exitDx=0;exitDy=0;" edge="1" parent="1" source="bJuoEY3J94CG9638gQCM-3" target="bJuoEY3J94CG9638gQCM-4">
          <mxGeometry width="50" height="50" relative="1" as="geometry">
            <mxPoint x="240" y="390" as="sourcePoint" />
            <mxPoint x="290" y="340" as="targetPoint" />
          </mxGeometry>
        </mxCell>
        <mxCell id="bJuoEY3J94CG9638gQCM-9" value="Hdfs原始日志备份" style="rounded=1;whiteSpace=wrap;html=1;fillColor=#dae8fc;strokeColor=#6c8ebf;" vertex="1" parent="1">
          <mxGeometry x="500" y="250" width="120" height="60" as="geometry" />
        </mxCell>
        <mxCell id="bJuoEY3J94CG9638gQCM-11" value="dwd层数据缓存区" style="shape=cylinder3;whiteSpace=wrap;html=1;boundedLbl=1;backgroundOutline=1;size=15;fillColor=#fa6800;fontColor=#000000;strokeColor=#C73500;" vertex="1" parent="1">
          <mxGeometry x="720" y="236" width="60" height="80" as="geometry" />
        </mxCell>
        <mxCell id="bJuoEY3J94CG9638gQCM-14" value="kafka" style="text;html=1;strokeColor=none;fillColor=none;align=center;verticalAlign=middle;whiteSpace=wrap;rounded=0;" vertex="1" parent="1">
          <mxGeometry x="720" y="196" width="60" height="30" as="geometry" />
        </mxCell>
        <mxCell id="bJuoEY3J94CG9638gQCM-15" value="sparkStreaming&amp;nbsp;&lt;br&gt;ETL" style="rounded=1;whiteSpace=wrap;html=1;fillColor=#fad7ac;strokeColor=#b46504;" vertex="1" parent="1">
          <mxGeometry x="850" y="226" width="120" height="100" as="geometry" />
        </mxCell>
        <mxCell id="bJuoEY3J94CG9638gQCM-16" value="ods层" style="shape=cylinder3;whiteSpace=wrap;html=1;boundedLbl=1;backgroundOutline=1;size=15;fillColor=#fa6800;fontColor=#000000;strokeColor=#C73500;" vertex="1" parent="1">
          <mxGeometry x="1050" y="236" width="60" height="80" as="geometry" />
        </mxCell>
        <mxCell id="bJuoEY3J94CG9638gQCM-17" value="kafka" style="text;html=1;strokeColor=none;fillColor=none;align=center;verticalAlign=middle;whiteSpace=wrap;rounded=0;" vertex="1" parent="1">
          <mxGeometry x="1050" y="196" width="60" height="30" as="geometry" />
        </mxCell>
        <mxCell id="bJuoEY3J94CG9638gQCM-18" value="" style="endArrow=classic;html=1;rounded=0;entryX=0;entryY=0.5;entryDx=0;entryDy=0;" edge="1" parent="1">
          <mxGeometry width="50" height="50" relative="1" as="geometry">
            <mxPoint x="640" y="280" as="sourcePoint" />
            <mxPoint x="720" y="280" as="targetPoint" />
          </mxGeometry>
        </mxCell>
        <mxCell id="bJuoEY3J94CG9638gQCM-22" value="" style="endArrow=classic;html=1;rounded=0;entryX=0;entryY=0.5;entryDx=0;entryDy=0;" edge="1" parent="1" target="bJuoEY3J94CG9638gQCM-15">
          <mxGeometry width="50" height="50" relative="1" as="geometry">
            <mxPoint x="780" y="276" as="sourcePoint" />
            <mxPoint x="830" y="226" as="targetPoint" />
          </mxGeometry>
        </mxCell>
        <mxCell id="bJuoEY3J94CG9638gQCM-23" value="" style="endArrow=classic;html=1;rounded=0;entryX=0;entryY=0.5;entryDx=0;entryDy=0;entryPerimeter=0;" edge="1" parent="1" target="bJuoEY3J94CG9638gQCM-16">
          <mxGeometry width="50" height="50" relative="1" as="geometry">
            <mxPoint x="970" y="276" as="sourcePoint" />
            <mxPoint x="1020" y="226" as="targetPoint" />
          </mxGeometry>
        </mxCell>
        <mxCell id="bJuoEY3J94CG9638gQCM-25" value="数据过滤数据清洗idmapping&lt;br&gt;数据加工" style="text;html=1;strokeColor=none;fillColor=none;align=center;verticalAlign=middle;whiteSpace=wrap;rounded=0;" vertex="1" parent="1">
          <mxGeometry x="988" y="222" width="53" height="41" as="geometry" />
        </mxCell>
        <mxCell id="bJuoEY3J94CG9638gQCM-26" value="doris" style="shape=cylinder3;whiteSpace=wrap;html=1;boundedLbl=1;backgroundOutline=1;size=15;fillColor=#fa6800;fontColor=#000000;strokeColor=#C73500;" vertex="1" parent="1">
          <mxGeometry x="1050" y="436" width="60" height="80" as="geometry" />
        </mxCell>
        <mxCell id="bJuoEY3J94CG9638gQCM-27" value="" style="endArrow=classic;html=1;rounded=0;entryX=0.5;entryY=0;entryDx=0;entryDy=0;entryPerimeter=0;" edge="1" parent="1" target="bJuoEY3J94CG9638gQCM-26">
          <mxGeometry width="50" height="50" relative="1" as="geometry">
            <mxPoint x="1080" y="316" as="sourcePoint" />
            <mxPoint x="1130" y="266" as="targetPoint" />
          </mxGeometry>
        </mxCell>
        <mxCell id="bJuoEY3J94CG9638gQCM-28" value="load任务将数据导入到doris的用户表和行为表中" style="text;html=1;strokeColor=none;fillColor=none;align=center;verticalAlign=middle;whiteSpace=wrap;rounded=0;" vertex="1" parent="1">
          <mxGeometry x="980" y="346" width="100" height="60" as="geometry" />
        </mxCell>
      </root>
    </mxGraphModel>
  </diagram>
</mxfile>
